<svg id="Layer_2_1_" enable-background="new 0 0 128 128" height="512" viewBox="0 0 128 128" width="512" xmlns="http://www.w3.org/2000/svg"><path d="m20.6 92.2h11.5v18.9h-11.5z" fill="#5e3369" transform="matrix(.707 -.707 .707 .707 -64.139 48.414)"/><path d="m117.9 5.5c-10.6 4.7-20.1 11.3-28.3 19.5l-65.9 65.9 13.4 13.4 65.9-65.9c8.2-8.1 14.8-17.7 19.5-28.2l3.7-8.4z" fill="#e2e9f2"/><g fill="#8ac9ff"><path d="m36 126.3-7-13.9 8.1-8.1 3.5 17.3z"/><path d="m1.8 92 13.8 7 8.1-8.1-17.3-3.5z"/><path d="m61 102.4-2.4-19.7 9.2-9.1-.2 22.2z"/><path d="m25.6 67 19.7 2.4 9.1-9.2-22.2.2z"/></g><path d="m37.1 104.3-13.4-13.4 17.1-17.1 15.3-1.9-1.9 15.3z" fill="#e24f58"/><path d="m83.2 79-1.8-19 17-17.1-2.5 23.4z" fill="#8ac9ff"/><path d="m49 44.8 19 1.8 17.1-17-23.4 2.5z" fill="#8ac9ff"/><path d="m2.2 125.8c1.3-9.9 5.8-19.2 12.9-26.2l.5-.5 13.4 13.3-.5.5c-7.1 7.1-16.3 11.6-26.3 12.9z" fill="#ffbd4a"/><path d="m86.4 55 .4-13.8-13.8.4 5.6-5.6 13.8-.4-.4 13.8z" fill="#e24f58"/><path d="m127.5.5c-.5-.5-1.3-.7-1.9-.4l-8.4 3.7c-10.7 4.8-20.5 11.6-28.8 19.9l-4.1 4.1-22.8 2.5c-.4 0-.8.2-1 .5l-12.8 12.8c-.7.7-.7 1.8 0 2.5.3.3.7.5 1.1.5l15.4 1.4-10.5 10.4-21.5.2c-1 0-1.7.8-1.7 1.8s.8 1.7 1.8 1.7l17.9-.1-5.5 5.5-18.8-2.3c-1-.1-1.8.6-1.9 1.5-.1 1 .6 1.8 1.5 1.9l16.1 1.9-1.9 1.9-16.5 16.6-16.4-3.3c-.6-.1-1.2.1-1.6.5l-4.7 4.7c-.7.7-.7 1.8 0 2.5.1.1.3.2.5.3l11.7 5.9c-6.7 7.2-10.9 16.3-12.2 26-.1 1 .6 1.8 1.5 2h.2.2c9.7-1.3 18.8-5.5 26-12.2l5.9 11.7c.5.9 1.5 1.2 2.4.8.2-.1.3-.2.4-.3l4.7-4.7c.4-.4.6-1 .5-1.6l-3.3-16.5 16.4-16.4 1.9-1.9 1.9 16.1c.1 1 1 1.6 1.9 1.5.4 0 .8-.2 1-.5l6.6-6.6c.3-.3.5-.8.5-1.2l.2-21.5 10.6-10.5 1.4 15.3c.1 1 .9 1.7 1.9 1.6.4 0 .8-.2 1.1-.5l12.7-12.7c.3-.3.5-.7.5-1l2.5-22.8 4.1-4.1c2.3-2.3 4.6-4.8 6.7-7.4.6-.7.6-1.8-.1-2.5-.7-.6-1.8-.6-2.5.1 0 0-.1.1-.1.1-2 2.5-4.2 4.9-6.5 7.1l-4.6 4.6-3.2 3.4.3-9.4c0-.5-.2-.9-.5-1.3-.3-.3-.8-.5-1.3-.5l-9.4.3 7.9-7.9c8-8 17.4-14.5 27.7-19.2l4.3-1.9-1.9 4.3c-1.2 2.6-2.5 5.2-3.9 7.7-.5.8-.2 1.9.7 2.4.8.5 1.9.2 2.4-.7 1.5-2.6 2.8-5.3 4-8l3.7-8.4c.2-.6.1-1.4-.4-1.9zm-74.7 42.9 9.7-9.7 17.8-1.9-12.9 13zm-11.2 32.1 12.5-1.6-1.6 12.5-15.4 15.4-5.4-5.4-5.4-5.4 7.7-7.7zm-7 28.8-5.7 5.6-10.8-10.9 5.6-5.6 9.4 9.4zm-27.6-15 13.2 2.7-3.5 3.5-1.4 1.4-10.6-5.3zm8.6 12.2 4.2 4.2-4.7 4.7c-.7.7-.7 1.8 0 2.5s1.8.7 2.5 0l4.7-4.7 4.2 4.2c-6.1 5.8-13.8 9.8-22.2 11.3 1.6-8.4 5.5-16.1 11.3-22.2zm20.8 21.8-5.3-10.6 4.9-4.9 2.7 13.2zm29.4-28.3-3.5 3.5-1.8-15.2 5.5-5.5zm28.4-29.5-9.7 9.7-1.4-14.5 6.5-6.5 3.5-3.5 2.9-2.9zm-9.9-10.9-27.8 27.8 1.3-10.2c.1-1-.6-1.8-1.5-2-.1 0-.3 0-.4 0l-10.2 1.3 28.1-28.1 11.2-.4-.3 11.2zm6.3-17.2-.3 11.2-2 2 .3-9.4c0-1-.7-1.8-1.7-1.8h-.1l-9.4.3 2-2z"/><path d="m115.6 22.9c-.8-.5-1.9-.3-2.4.5l-.5.7c-.6.8-.4 1.9.4 2.4s1.9.4 2.4-.4l.5-.7c.6-.9.4-2-.4-2.5z"/><path d="m34.4 90.4 3.2 3.2c.7.7 1.8.7 2.5 0s.7-1.8 0-2.5l-3.2-3.2c-.7-.7-1.8-.7-2.5 0s-.7 1.8 0 2.5z"/></svg>